<svg xmlns="http://www.w3.org/2000/svg" viewBox="0 0 1438 760" role="img" aria-labelledby="title desc">
  <title id="title">图 1 单幅图像超分辨率任务示意图</title>
  <desc id="desc">单幅图像超分辨率任务从单张低分辨率图像输入出发，经超分辨率重建网络恢复高分辨率图像，并以真实高分辨率图像作为训练监督和质量评价参考。</desc>
  <defs>
    <linearGradient id="panelBg" x1="0" y1="0" x2="1" y2="1">
      <stop offset="0" stop-color="#ffffff"/>
      <stop offset="1" stop-color="#f7f7f7"/>
    </linearGradient>
    <linearGradient id="sky" x1="0" y1="0" x2="0" y2="1">
      <stop offset="0" stop-color="#dbe4eb"/>
      <stop offset="1" stop-color="#f5f7f8"/>
    </linearGradient>
    <linearGradient id="modelBg" x1="0" y1="0" x2="1" y2="1">
      <stop offset="0" stop-color="#f7f9f8"/>
      <stop offset="1" stop-color="#f3f4f6"/>
    </linearGradient>
    <linearGradient id="srBorder" x1="0" y1="0" x2="1" y2="1">
      <stop offset="0" stop-color="#5f756e"/>
      <stop offset="1" stop-color="#6f84a6"/>
    </linearGradient>
    <filter id="shadow" x="-12%" y="-12%" width="124%" height="124%">
      <feDropShadow dx="0" dy="10" stdDeviation="3" flood-color="#111111" flood-opacity="0.04"/>
    </filter>
    <marker id="arrow" markerWidth="13" markerHeight="13" refX="11" refY="6.5" orient="auto">
      <path d="M1,1 L12,6.5 L1,12 Z" fill="#333333"/>
    </marker>
    <marker id="dashArrow" markerWidth="12" markerHeight="12" refX="10" refY="6" orient="auto">
      <path d="M1,1 L11,6 L1,11 Z" fill="#666666"/>
    </marker>
    <clipPath id="lrClip">
      <rect x="104" y="216" width="224" height="224" rx="8"/>
    </clipPath>
    <clipPath id="srClip">
      <rect x="1006" y="166" width="328" height="328" rx="10"/>
    </clipPath>
  </defs>
  <style>
    .title { font-family: "Noto Sans CJK SC", "Microsoft YaHei", "PingFang SC", "Heiti SC", Arial, sans-serif; font-size: 34px; font-weight: 700; fill: #111111; letter-spacing: 0; }
    .label { font-family: "Noto Sans CJK SC", "Microsoft YaHei", "PingFang SC", "Heiti SC", Arial, sans-serif; font-size: 26px; font-weight: 700; fill: #111111; letter-spacing: 0; }
    .sub { font-family: "Noto Sans CJK SC", "Microsoft YaHei", "PingFang SC", "Heiti SC", Arial, sans-serif; font-size: 20px; fill: #4d4d4d; letter-spacing: 0; }
    .small { font-family: "Noto Sans CJK SC", "Microsoft YaHei", "PingFang SC", "Heiti SC", Arial, sans-serif; font-size: 17px; fill: #4d4d4d; letter-spacing: 0; }
    .tiny { font-family: "Noto Sans CJK SC", "Microsoft YaHei", "PingFang SC", "Heiti SC", Arial, sans-serif; font-size: 15px; fill: #666666; letter-spacing: 0; }
    .math { font-family: "Times New Roman", "Noto Sans CJK SC", serif; font-size: 21px; fill: #333333; letter-spacing: 0; }
    .panel { fill: url(#panelBg); stroke: #bdbdbd; stroke-width: 2; }
    .module { fill: #ffffff; stroke: #dde8e4; stroke-width: 2; }
    .callout { fill: #f7f7f7; stroke: #9a9a9a; stroke-width: 2; stroke-dasharray: 9 7; }
    .gridLine { stroke: #ffffff; stroke-width: 1; opacity: 0.58; }
    .arrowText { font-family: "Noto Sans CJK SC", "Microsoft YaHei", "PingFang SC", "Heiti SC", Arial, sans-serif; font-size: 19px; font-weight: 700; fill: #333333; letter-spacing: 0; }
  </style>

  <rect width="1438" height="760" fill="#ffffff"/>
  <text x="719" y="66" text-anchor="middle" class="title">单幅图像超分辨率任务流程</text>
  <text x="719" y="102" text-anchor="middle" class="sub">从单张低分辨率图像恢复清晰结构、边缘与纹理细节</text>

  <g filter="url(#shadow)">
    <rect x="64" y="154" width="312" height="408" rx="16" class="panel"/>
    <text x="220" y="194" text-anchor="middle" class="label">低分辨率输入 LR</text>
    <text x="220" y="526" text-anchor="middle" class="small">单张图像，尺寸 H × W</text>
  </g>

  <g clip-path="url(#lrClip)" shape-rendering="crispEdges">
    <rect x="104" y="216" width="224" height="224" fill="#e0e7eb"/>
    <rect x="104" y="216" width="28" height="28" fill="#dbe5eb"/>
    <rect x="132" y="216" width="28" height="28" fill="#e0e8ec"/>
    <rect x="160" y="216" width="28" height="28" fill="#dde6ec"/>
    <rect x="188" y="216" width="28" height="28" fill="#d8e2e8"/>
    <rect x="216" y="216" width="28" height="28" fill="#dbe5eb"/>
    <rect x="244" y="216" width="28" height="28" fill="#e0e8ec"/>
    <rect x="272" y="216" width="28" height="28" fill="#dfcf9b"/>
    <rect x="300" y="216" width="28" height="28" fill="#eadfac"/>

    <rect x="104" y="244" width="28" height="28" fill="#e0e8ec"/>
    <rect x="132" y="244" width="28" height="28" fill="#e0e8ec"/>
    <rect x="160" y="244" width="28" height="28" fill="#dbe5eb"/>
    <rect x="188" y="244" width="28" height="28" fill="#e1e9ed"/>
    <rect x="216" y="244" width="28" height="28" fill="#e5edef"/>
    <rect x="244" y="244" width="28" height="28" fill="#e1e9ed"/>
    <rect x="272" y="244" width="28" height="28" fill="#dfcf9b"/>
    <rect x="300" y="244" width="28" height="28" fill="#f0f3f5"/>

    <rect x="104" y="272" width="28" height="28" fill="#e5ecef"/>
    <rect x="132" y="272" width="28" height="28" fill="#c5e8f5"/>
    <rect x="160" y="272" width="28" height="28" fill="#c4cbce"/>
    <rect x="188" y="272" width="28" height="28" fill="#b5bec3"/>
    <rect x="216" y="272" width="28" height="28" fill="#c8d0d4"/>
    <rect x="244" y="272" width="28" height="28" fill="#dfe7eb"/>
    <rect x="272" y="272" width="28" height="28" fill="#e1e9ed"/>
    <rect x="300" y="272" width="28" height="28" fill="#e5edef"/>

    <rect x="104" y="300" width="28" height="28" fill="#adb6ba"/>
    <rect x="132" y="300" width="28" height="28" fill="#99a3a9"/>
    <rect x="160" y="300" width="28" height="28" fill="#849097"/>
    <rect x="188" y="300" width="28" height="28" fill="#747e84"/>
    <rect x="216" y="300" width="28" height="28" fill="#929da3"/>
    <rect x="244" y="300" width="28" height="28" fill="#bcc5c9"/>
    <rect x="272" y="300" width="28" height="28" fill="#a1acb2"/>
    <rect x="300" y="300" width="28" height="28" fill="#89949b"/>

    <rect x="104" y="328" width="28" height="28" fill="#7b858b"/>
    <rect x="132" y="328" width="28" height="28" fill="#6a747a"/>
    <rect x="160" y="328" width="28" height="28" fill="#606a70"/>
    <rect x="188" y="328" width="28" height="28" fill="#6b757b"/>
    <rect x="216" y="328" width="28" height="28" fill="#859198"/>
    <rect x="244" y="328" width="28" height="28" fill="#7e898f"/>
    <rect x="272" y="328" width="28" height="28" fill="#6a747a"/>
    <rect x="300" y="328" width="28" height="28" fill="#626b71"/>

    <rect x="104" y="356" width="28" height="28" fill="#596369"/>
    <rect x="132" y="356" width="28" height="28" fill="#687278"/>
    <rect x="160" y="356" width="28" height="28" fill="#667077"/>
    <rect x="188" y="356" width="28" height="28" fill="#7d8588"/>
    <rect x="216" y="356" width="28" height="28" fill="#929b9f"/>
    <rect x="244" y="356" width="28" height="28" fill="#626b71"/>
    <rect x="272" y="356" width="28" height="28" fill="#4f5960"/>
    <rect x="300" y="356" width="28" height="28" fill="#606a70"/>

    <rect x="104" y="384" width="28" height="28" fill="#89917d"/>
    <rect x="132" y="384" width="28" height="28" fill="#808a76"/>
    <rect x="160" y="384" width="28" height="28" fill="#78816e"/>
    <rect x="188" y="384" width="28" height="28" fill="#707866"/>
    <rect x="216" y="384" width="28" height="28" fill="#7d8672"/>
    <rect x="244" y="384" width="28" height="28" fill="#8e967e"/>
    <rect x="272" y="384" width="28" height="28" fill="#747d6d"/>
    <rect x="300" y="384" width="28" height="28" fill="#697463"/>

    <rect x="104" y="412" width="28" height="28" fill="#6a7461"/>
    <rect x="132" y="412" width="28" height="28" fill="#77816c"/>
    <rect x="160" y="412" width="28" height="28" fill="#65705d"/>
    <rect x="188" y="412" width="28" height="28" fill="#727b67"/>
    <rect x="216" y="412" width="28" height="28" fill="#818a74"/>
    <rect x="244" y="412" width="28" height="28" fill="#707966"/>
    <rect x="272" y="412" width="28" height="28" fill="#66715f"/>
    <rect x="300" y="412" width="28" height="28" fill="#707a68"/>
  </g>
  <rect x="104" y="216" width="224" height="224" rx="8" fill="none" stroke="#666666" stroke-width="2"/>
  <g>
    <line x1="132" y1="216" x2="132" y2="440" class="gridLine"/>
    <line x1="160" y1="216" x2="160" y2="440" class="gridLine"/>
    <line x1="188" y1="216" x2="188" y2="440" class="gridLine"/>
    <line x1="216" y1="216" x2="216" y2="440" class="gridLine"/>
    <line x1="244" y1="216" x2="244" y2="440" class="gridLine"/>
    <line x1="272" y1="216" x2="272" y2="440" class="gridLine"/>
    <line x1="300" y1="216" x2="300" y2="440" class="gridLine"/>
    <line x1="104" y1="244" x2="328" y2="244" class="gridLine"/>
    <line x1="104" y1="272" x2="328" y2="272" class="gridLine"/>
    <line x1="104" y1="300" x2="328" y2="300" class="gridLine"/>
    <line x1="104" y1="328" x2="328" y2="328" class="gridLine"/>
    <line x1="104" y1="356" x2="328" y2="356" class="gridLine"/>
    <line x1="104" y1="384" x2="328" y2="384" class="gridLine"/>
    <line x1="104" y1="412" x2="328" y2="412" class="gridLine"/>
  </g>

  <g filter="url(#shadow)">
    <rect x="502" y="196" width="330" height="316" rx="18" fill="url(#modelBg)" stroke="#9fb3aa" stroke-width="2.5"/>
    <text x="667" y="244" text-anchor="middle" class="label">SISR 重建网络</text>
    <text x="667" y="286" text-anchor="middle" class="math">SR = fθ(LR)</text>
    <rect x="545" y="316" width="245" height="36" rx="8" class="module"/>
    <text x="667" y="340" text-anchor="middle" class="small">浅层特征提取</text>
    <rect x="545" y="362" width="245" height="36" rx="8" class="module"/>
    <text x="667" y="386" text-anchor="middle" class="small">深层非线性特征映射</text>
    <rect x="545" y="408" width="245" height="36" rx="8" class="module"/>
    <text x="667" y="432" text-anchor="middle" class="small">上下文交互与细节重建</text>
    <rect x="545" y="454" width="245" height="36" rx="8" class="module"/>
    <text x="667" y="478" text-anchor="middle" class="small">上采样与图像恢复 ×2 / ×3 / ×4</text>
  </g>

  <path d="M388 350 C426 350, 456 350, 496 350" fill="none" stroke="#333333" stroke-width="4" marker-end="url(#arrow)"/>
  <text x="442" y="324" text-anchor="middle" class="arrowText">输入</text>
  <path d="M838 350 C882 350, 914 350, 958 350" fill="none" stroke="#333333" stroke-width="4" marker-end="url(#arrow)"/>
  <text x="898" y="324" text-anchor="middle" class="arrowText">超分辨率重建</text>

  <g filter="url(#shadow)">
    <rect x="966" y="116" width="408" height="462" rx="18" fill="#ffffff" stroke="url(#srBorder)" stroke-width="3"/>
    <text x="1170" y="154" text-anchor="middle" class="label">重建高分辨率图像 SR</text>
    <text x="1170" y="541" text-anchor="middle" class="small">尺寸 sH × sW，纹理与边缘更清晰</text>
  </g>

  <g clip-path="url(#srClip)">
    <rect x="1006" y="166" width="328" height="328" fill="url(#sky)"/>
    <circle cx="1270" cy="223" r="32" fill="#dfcf9b"/>
    <circle cx="1270" cy="223" r="47" fill="#dfcf9b" opacity="0.18"/>
    <path d="M1006 350 L1082 250 L1139 331 L1186 265 L1282 364 L1334 302 L1334 494 L1006 494 Z" fill="#929da3"/>
    <path d="M1006 374 L1078 286 L1140 357 L1185 304 L1250 382 L1334 330 L1334 494 L1006 494 Z" fill="#626b71"/>
    <path d="M1082 250 L1103 302 L1066 301 Z" fill="#eceeef" opacity="0.78"/>
    <path d="M1186 265 L1213 317 L1172 314 Z" fill="#eceeef" opacity="0.72"/>
    <path d="M1006 414 C1068 392, 1103 412, 1160 394 C1220 374, 1262 396, 1334 372 L1334 494 L1006 494 Z" fill="#89927b"/>
    <path d="M1006 435 C1082 415, 1136 437, 1198 417 C1257 399, 1293 414, 1334 402 L1334 494 L1006 494 Z" fill="#6f7b68"/>
    <path d="M1100 410 L1160 384 L1224 420 L1224 494 L1100 494 Z" fill="#e5e5e5" stroke="#333333" stroke-width="2"/>
    <path d="M1100 410 L1160 384 L1224 420" fill="none" stroke="#222222" stroke-width="3"/>
    <rect x="1120" y="430" width="24" height="24" fill="#b7c7d0" stroke="#333333" stroke-width="1.5"/>
    <rect x="1174" y="430" width="24" height="24" fill="#b7c7d0" stroke="#333333" stroke-width="1.5"/>
    <rect x="1148" y="461" width="26" height="33" fill="#6d6258" stroke="#333333" stroke-width="1.5"/>
    <path d="M1032 472 C1070 458, 1105 458, 1145 470" fill="none" stroke="#9ca990" stroke-width="2"/>
    <path d="M1236 451 C1278 432, 1307 440, 1332 426" fill="none" stroke="#9ca990" stroke-width="2"/>
    <path d="M1018 250 C1048 232, 1079 237, 1106 220" fill="none" stroke="#ffffff" stroke-width="4" opacity="0.7"/>
    <path d="M1194 244 C1224 226, 1252 233, 1284 214" fill="none" stroke="#ffffff" stroke-width="4" opacity="0.6"/>
    <g stroke="#4f5960" stroke-width="1.4" opacity="0.65">
      <line x1="1038" y1="386" x2="1110" y2="332"/>
      <line x1="1066" y1="399" x2="1131" y2="345"/>
      <line x1="1204" y1="382" x2="1259" y2="429"/>
      <line x1="1223" y1="393" x2="1283" y2="442"/>
    </g>
    <g stroke="#e5ead8" stroke-width="1.2" opacity="0.9">
      <line x1="1012" y1="452" x2="1090" y2="435"/>
      <line x1="1018" y1="465" x2="1108" y2="446"/>
      <line x1="1234" y1="470" x2="1330" y2="450"/>
      <line x1="1246" y1="486" x2="1330" y2="466"/>
    </g>
  </g>
  <rect x="1006" y="166" width="328" height="328" rx="10" fill="none" stroke="#5f756e" stroke-width="2.2"/>

  <g>
    <rect x="204" y="602" width="320" height="88" rx="14" class="callout"/>
    <text x="364" y="634" text-anchor="middle" class="small">单幅输入约束</text>
    <text x="364" y="664" text-anchor="middle" class="tiny">不依赖多帧、多视角或额外传感信息</text>
  </g>
  <path d="M220 562 C236 584, 264 598, 303 610" fill="none" stroke="#666666" stroke-width="2.2" stroke-dasharray="8 7" marker-end="url(#dashArrow)"/>

  <g>
    <rect x="930" y="618" width="390" height="86" rx="14" class="callout"/>
    <text x="1125" y="650" text-anchor="middle" class="small">训练监督与质量评价</text>
    <text x="1125" y="680" text-anchor="middle" class="tiny">目标：SR 接近真实 HR；指标：PSNR / SSIM</text>
  </g>
  <path d="M1170 578 C1168 598, 1154 611, 1125 618" fill="none" stroke="#666666" stroke-width="2.2" stroke-dasharray="8 7" marker-end="url(#dashArrow)"/>
</svg>
