<svg xmlns="http://www.w3.org/2000/svg" viewBox="0 0 1700 560" role="img" aria-labelledby="title desc">
  <title id="title">图 2 图像超分辨率技术发展脉络图</title>
  <desc id="desc">单轴时间线形式的图像超分辨率技术发展脉络图。图中按年份列出研究现状中提及的代表模型与网络名称，包括 SRCNN、EDSR、Transformer、RCAN、ViT、SwinIR、ELAN、HAT、DAT、CRAFT、NGswin、Omni-SR、SPIN、CFSR、HiT-SR、ATD、IPG、CFAT、PCSR、MTKD、UCIP、AdaBM、CATANet、SPCT、AutoLUT、IM-LUT、DiT4SR、DTWSR、High-Frequency Mamba、SAT、PFANet、PII-SR、Spatial-Frequency Fusion Tiny-Transformer、Shifted Pooling Cross-Aggregation、AlignVAR 和 FiDeSR。</desc>
  <style>
    .axis { stroke: #6f8fa8; stroke-width: 13; stroke-linecap: square; }
    .base { stroke: #d8d8d8; stroke-width: 5; stroke-linecap: square; }
    .guide { stroke: #d4d4d4; stroke-width: 2.4; stroke-dasharray: 7 6; }
    .tick { stroke: #9a9a9a; stroke-width: 3; }
    .dot { fill: #5f5f5f; }
    .yearDot { fill: #0f78a8; }
    .method { font-family: "Noto Sans CJK SC", "Microsoft YaHei", "PingFang SC", "Heiti SC", Arial, sans-serif; font-size: 17px; fill: #111111; letter-spacing: 0; }
    .year { font-family: "Noto Sans CJK SC", "Microsoft YaHei", "PingFang SC", "Heiti SC", Arial, sans-serif; font-size: 26px; fill: #555555; letter-spacing: 0; }
    .methodBox { fill: #ffffff; stroke: #bdbdbd; stroke-width: 1.6; }
  </style>

  <rect width="1700" height="560" fill="#ffffff"/>

  <line x1="70" y1="390" x2="1630" y2="390" class="base"/>
  <line x1="72" y1="255" x2="1618" y2="255" class="axis"/>

  <g>
    <line x1="105" y1="204" x2="105" y2="390" class="guide"/>
    <line x1="105" y1="200" x2="105" y2="249" class="tick"/>
    <circle cx="105" cy="260" r="5" class="dot"/>
    <circle cx="105" cy="390" r="14" class="yearDot"/>
    <text x="75" y="442" class="year">2014</text>
    <text x="105" y="120" text-anchor="middle" class="method">SRCNN</text>
  </g>

  <g>
    <line x1="255" y1="142" x2="255" y2="390" class="guide"/>
    <line x1="255" y1="188" x2="255" y2="249" class="tick"/>
    <circle cx="255" cy="260" r="5" class="dot"/>
    <circle cx="255" cy="390" r="14" class="yearDot"/>
    <text x="225" y="442" class="year">2017</text>
    <rect x="190" y="62" width="130" height="76" rx="5" class="methodBox"/>
    <text x="255" y="92" text-anchor="middle" class="method">
      <tspan x="255" dy="0">EDSR</tspan>
      <tspan x="255" dy="24">Transformer</tspan>
    </text>
  </g>

  <g>
    <line x1="395" y1="204" x2="395" y2="390" class="guide"/>
    <line x1="395" y1="200" x2="395" y2="249" class="tick"/>
    <circle cx="395" cy="260" r="5" class="dot"/>
    <circle cx="395" cy="390" r="14" class="yearDot"/>
    <text x="365" y="442" class="year">2018</text>
    <text x="395" y="120" text-anchor="middle" class="method">RCAN</text>
  </g>

  <g>
    <line x1="560" y1="142" x2="560" y2="390" class="guide"/>
    <line x1="560" y1="188" x2="560" y2="249" class="tick"/>
    <circle cx="560" cy="260" r="5" class="dot"/>
    <circle cx="560" cy="390" r="14" class="yearDot"/>
    <text x="530" y="442" class="year">2021</text>
    <rect x="485" y="62" width="150" height="76" rx="5" class="methodBox"/>
    <text x="560" y="92" text-anchor="middle" class="method">
      <tspan x="560" dy="0">ViT</tspan>
      <tspan x="560" dy="24">SwinIR</tspan>
    </text>
  </g>

  <g>
    <line x1="715" y1="204" x2="715" y2="390" class="guide"/>
    <line x1="715" y1="200" x2="715" y2="249" class="tick"/>
    <circle cx="715" cy="260" r="5" class="dot"/>
    <circle cx="715" cy="390" r="14" class="yearDot"/>
    <text x="685" y="442" class="year">2022</text>
    <text x="715" y="120" text-anchor="middle" class="method">ELAN</text>
  </g>

  <g>
    <line x1="900" y1="156" x2="900" y2="390" class="guide"/>
    <line x1="900" y1="174" x2="900" y2="249" class="tick"/>
    <circle cx="900" cy="260" r="5" class="dot"/>
    <circle cx="900" cy="390" r="14" class="yearDot"/>
    <text x="870" y="442" class="year">2023</text>
    <rect x="790" y="36" width="220" height="116" rx="5" class="methodBox"/>
    <text x="900" y="66" text-anchor="middle" class="method">
      <tspan x="900" dy="0">HAT / DAT / CRAFT</tspan>
      <tspan x="900" dy="24">NGswin / Omni-SR</tspan>
      <tspan x="900" dy="24">SPIN</tspan>
    </text>
  </g>

  <g>
    <line x1="1115" y1="242" x2="1115" y2="390" class="guide"/>
    <line x1="1115" y1="182" x2="1115" y2="249" class="tick"/>
    <circle cx="1115" cy="260" r="5" class="dot"/>
    <circle cx="1115" cy="390" r="14" class="yearDot"/>
    <text x="1085" y="442" class="year">2024</text>
    <rect x="995" y="110" width="240" height="128" rx="5" class="methodBox"/>
    <text x="1115" y="140" text-anchor="middle" class="method">
      <tspan x="1115" dy="0">CFSR / HiT-SR</tspan>
      <tspan x="1115" dy="24">ATD / IPG / CFAT</tspan>
      <tspan x="1115" dy="24">PCSR / MTKD / UCIP</tspan>
      <tspan x="1115" dy="24">AdaBM</tspan>
    </text>
  </g>

  <g>
    <line x1="1325" y1="156" x2="1325" y2="390" class="guide"/>
    <line x1="1325" y1="174" x2="1325" y2="249" class="tick"/>
    <circle cx="1325" cy="260" r="5" class="dot"/>
    <circle cx="1325" cy="390" r="14" class="yearDot"/>
    <text x="1295" y="442" class="year">2025</text>
    <rect x="1205" y="24" width="250" height="140" rx="5" class="methodBox"/>
    <text x="1325" y="66" text-anchor="middle" class="method">
      <tspan x="1325" dy="0">CATANet / SPCT</tspan>
      <tspan x="1325" dy="24">AutoLUT / IM-LUT</tspan>
      <tspan x="1325" dy="24">DiT4SR / DTWSR</tspan>
      <tspan x="1325" dy="24">High-Frequency Mamba</tspan>
    </text>
  </g>

  <g>
    <line x1="1570" y1="286" x2="1570" y2="390" class="guide"/>
    <line x1="1570" y1="182" x2="1570" y2="249" class="tick"/>
    <circle cx="1570" cy="260" r="5" class="dot"/>
    <circle cx="1570" cy="390" r="14" class="yearDot"/>
    <text x="1540" y="442" class="year">2026</text>
    <rect x="1435" y="92" width="250" height="196" rx="5" class="methodBox"/>
    <text x="1560" y="122" text-anchor="middle" class="method">
      <tspan x="1560" dy="0">SAT / PFANet</tspan>
      <tspan x="1560" dy="24">PII-SR</tspan>
      <tspan x="1560" dy="24">Spatial-Frequency</tspan>
      <tspan x="1560" dy="24">Fusion Tiny-Transformer</tspan>
      <tspan x="1560" dy="24">Shifted Pooling</tspan>
      <tspan x="1560" dy="24">Cross-Aggregation</tspan>
      <tspan x="1560" dy="24">AlignVAR / FiDeSR</tspan>
    </text>
  </g>
</svg>
